<?xml version="1.0" encoding="UTF-8" standalone="no"?>
<!-- Created with Inkscape (http://www.inkscape.org/) -->

<svg
   xmlns:dc="http://purl.org/dc/elements/1.1/"
   xmlns:cc="http://creativecommons.org/ns#"
   xmlns:rdf="http://www.w3.org/1999/02/22-rdf-syntax-ns#"
   xmlns:svg="http://www.w3.org/2000/svg"
   xmlns="http://www.w3.org/2000/svg"
   xmlns:sodipodi="http://sodipodi.sourceforge.net/DTD/sodipodi-0.dtd"
   xmlns:inkscape="http://www.inkscape.org/namespaces/inkscape"
   width="48px"
   height="48px"
   id="svg2985"
   version="1.1"
   inkscape:version="0.48.1 r9760"
   sodipodi:docname="icon.svg"
   inkscape:export-filename="/home/tudor/development/syn/flywire/branches/0.2/src/org/bentokit/flywire/plugins/announcements/icon.png"
   inkscape:export-xdpi="90"
   inkscape:export-ydpi="90">
  <defs
     id="defs2987" />
  <sodipodi:namedview
     id="base"
     pagecolor="#ffffff"
     bordercolor="#666666"
     borderopacity="1.0"
     inkscape:pageopacity="0.0"
     inkscape:pageshadow="2"
     inkscape:zoom="7"
     inkscape:cx="20.589285"
     inkscape:cy="15.709263"
     inkscape:current-layer="layer1"
     showgrid="true"
     inkscape:grid-bbox="true"
     inkscape:document-units="px"
     inkscape:window-width="1366"
     inkscape:window-height="744"
     inkscape:window-x="0"
     inkscape:window-y="24"
     inkscape:window-maximized="1" />
  <metadata
     id="metadata2990">
    <rdf:RDF>
      <cc:Work
         rdf:about="">
        <dc:format>image/svg+xml</dc:format>
        <dc:type
           rdf:resource="http://purl.org/dc/dcmitype/StillImage" />
        <dc:title></dc:title>
      </cc:Work>
    </rdf:RDF>
  </metadata>
  <g
     id="layer1"
     inkscape:label="Layer 1"
     inkscape:groupmode="layer">
    <path
       style="font-size:medium;font-style:normal;font-variant:normal;font-weight:normal;font-stretch:normal;text-indent:0;text-align:start;text-decoration:none;line-height:normal;letter-spacing:normal;word-spacing:normal;text-transform:none;direction:ltr;block-progression:tb;writing-mode:lr-tb;text-anchor:start;baseline-shift:baseline;color:#000000;fill:#000000;fill-opacity:1;stroke:none;stroke-width:1;marker:none;visibility:visible;display:inline;overflow:visible;enable-background:accumulate;font-family:Sans;-inkscape-font-specification:Sans"
       d="m 9.59375,7.6830362 c -4.9219512,0 -8.87499993,3.9842988 -8.87499993,8.9062498 l 0,7.25 c 0,4.921951 3.95304873,8.90625 8.87499993,8.90625 l 1.623884,7.571428 6.623884,-6.999999 13.338169,-0.571429 7.195313,0 c 4.921951,0 8.90625,-3.984299 8.90625,-8.90625 l 0,-7.25 c 0,-4.921951 -3.984299,-8.9062499 -8.90625,-8.9062499 z m 0,1 28.78125,0 c 4.385248,0 7.90625,3.5210018 7.90625,7.9062498 l 0,7.25 c 0,4.385248 -3.521002,7.90625 -7.90625,7.90625 l -7.195313,0 -13.766741,0 -5.623884,6 -1.481026,-6.285714 c -4.3852487,0 -8.589286,-3.235288 -8.589286,-7.620536 l 0,-7.25 c 0,-4.385248 3.4897516,-7.9062498 7.875,-7.9062498 z"
       id="rect2983"
       inkscape:connector-curvature="0"
       sodipodi:nodetypes="sssscccssssssssssccccsss" />
  </g>
</svg>
