<?xml version="1.0" encoding="UTF-8" standalone="no"?>
<!-- Created with Inkscape (http://www.inkscape.org/) -->

<svg
   xmlns:dc="http://purl.org/dc/elements/1.1/"
   xmlns:cc="http://creativecommons.org/ns#"
   xmlns:rdf="http://www.w3.org/1999/02/22-rdf-syntax-ns#"
   xmlns:svg="http://www.w3.org/2000/svg"
   xmlns="http://www.w3.org/2000/svg"
   xmlns:sodipodi="http://sodipodi.sourceforge.net/DTD/sodipodi-0.dtd"
   xmlns:inkscape="http://www.inkscape.org/namespaces/inkscape"
   width="64px"
   height="64px"
   id="svg3493"
   version="1.1"
   inkscape:version="0.48.0 r9654"
   sodipodi:docname="bentokit-flywire.svg"
   inkscape:export-filename="/home/tudor/development/syn/flywire/branches/0.2/resource/icon.png"
   inkscape:export-xdpi="360"
   inkscape:export-ydpi="360">
  <defs
     id="defs3495" />
  <sodipodi:namedview
     id="base"
     pagecolor="#ffffff"
     bordercolor="#666666"
     borderopacity="1.0"
     inkscape:pageopacity="0.0"
     inkscape:pageshadow="2"
     inkscape:zoom="5.5"
     inkscape:cx="29.090909"
     inkscape:cy="36.71066"
     inkscape:current-layer="layer1"
     showgrid="true"
     inkscape:document-units="px"
     inkscape:grid-bbox="true"
     inkscape:window-width="1366"
     inkscape:window-height="722"
     inkscape:window-x="0"
     inkscape:window-y="24"
     inkscape:window-maximized="1" />
  <metadata
     id="metadata3498">
    <rdf:RDF>
      <cc:Work
         rdf:about="">
        <dc:format>image/svg+xml</dc:format>
        <dc:type
           rdf:resource="http://purl.org/dc/dcmitype/StillImage" />
        <dc:title></dc:title>
      </cc:Work>
    </rdf:RDF>
  </metadata>
  <g
     id="layer1"
     inkscape:label="Layer 1"
     inkscape:groupmode="layer">
    <g
       transform="matrix(1.6,0,0,1.6,-64.38752,-1139.4408)"
       style="font-size:12px;font-style:normal;font-weight:normal;fill:#000000;fill-opacity:1;stroke:#000000;stroke-width:1;stroke-linecap:square;stroke-linejoin:miter;stroke-miterlimit:10;stroke-opacity:1;stroke-dasharray:none;stroke-dashoffset:0;font-family:sanserif"
       id="g3485">
      <path
         inkscape:connector-curvature="0"
         id="path3348"
         style="fill:#fe6274;stroke:none"
         d="m 60.5117,750.637 c -10.2109,0 -18.4844,-8.278 -18.4844,-18.489 0,-10.207 8.2735,-18.484 18.4844,-18.484 10.2071,0 18.4844,8.277 18.4844,18.484 0,10.211 -8.2773,18.489 -18.4844,18.489 m 0,-35.852 c -9.5898,0 -17.3633,7.774 -17.3633,17.363 0,9.59 7.7735,17.368 17.3633,17.368 9.5899,0 17.3633,-7.778 17.3633,-17.368 0,-9.589 -7.7734,-17.363 -17.3633,-17.363" />
      <path
         inkscape:connector-curvature="0"
         id="path3350"
         style="fill:#fe4055;stroke:none"
         d="m 60.5117,749.516 c -9.5898,0 -17.3633,-7.778 -17.3633,-17.368 0,-9.589 7.7735,-17.363 17.3633,-17.363 9.5899,0 17.3633,7.774 17.3633,17.363 0,9.59 -7.7734,17.368 -17.3633,17.368" />
      <path
         inkscape:connector-curvature="0"
         id="path3352"
         style="fill:#ff1630;stroke:none"
         d="m 69.1094,730.523 c 0,5.336 -4.3282,9.665 -9.6641,9.665 l -8.2891,0 c -5.3398,0 -9.6679,-4.329 -9.6679,-9.665 l 0,-4.835 c 0,-5.336 4.3281,-9.665 9.6679,-9.665 l 8.2891,0 c 5.3359,0 9.6641,4.329 9.6641,9.665 z" />
      <path
         inkscape:connector-curvature="0"
         id="path3354"
         style="fill:#a70911;stroke:none"
         d="m 68.375,730.039 c 0,4.27 -3.4609,7.734 -7.7305,7.734 l -6.6289,0 c -4.2734,0 -7.7344,-3.464 -7.7344,-7.734 l 0,-3.867 c 0,-4.27 3.461,-7.731 7.7344,-7.731 l 6.6289,0 c 4.2696,0 7.7305,3.461 7.7305,7.731 z" />
      <path
         inkscape:connector-curvature="0"
         id="path3356"
         style="fill:#a70911;stroke:none"
         d="m 70.2148,740.738 c -0.7773,0.981 -1.9296,1.36 -2.5742,0.848 l -8.3164,-8.137 c -0.5898,-0.465 -0.6758,-1.328 -0.1992,-1.929 l 0.6484,-0.817 c 0.4766,-0.601 1.3399,-0.711 1.9258,-0.246 l 9.8086,6.254 c 0.6484,0.512 0.5391,1.719 -0.2383,2.699 z" />
      <path
         inkscape:connector-curvature="0"
         id="path3358"
         style="fill:#a70911;stroke:none"
         d="m 73.582,742.391 -8.0898,1.437 7.8203,-9.644 z" />
    </g>
  </g>
</svg>
